<svg id="visual" viewBox="0 0 900 450" width="900" height="450" xmlns="http://www.w3.org/2000/svg" xmlns:xlink="http://www.w3.org/1999/xlink" version="1.1"><rect x="0" y="0" width="900" height="450" fill="#FDF5E6"></rect><path d="M0 284L129 327L257 336L386 296L514 327L643 297L771 329L900 301L900 451L771 451L643 451L514 451L386 451L257 451L129 451L0 451Z" fill="#b49072"></path><path d="M0 337L129 356L257 348L386 303L514 341L643 305L771 339L900 347L900 451L771 451L643 451L514 451L386 451L257 451L129 451L0 451Z" fill="#997a61"></path><path d="M0 354L129 371L257 353L386 377L514 332L643 360L771 353L900 338L900 451L771 451L643 451L514 451L386 451L257 451L129 451L0 451Z" fill="#7e6450"></path><path d="M0 369L129 407L257 392L386 382L514 391L643 390L771 401L900 374L900 451L771 451L643 451L514 451L386 451L257 451L129 451L0 451Z" fill="#645040"></path><path d="M0 430L129 415L257 393L386 421L514 415L643 414L771 423L900 394L900 451L771 451L643 451L514 451L386 451L257 451L129 451L0 451Z" fill="#4b3c30"></path></svg>